<svg width="165" height="70" viewBox="0 0 165 70" fill="none" xmlns="http://www.w3.org/2000/svg"><path d="M20.5347 1.77961C20.5347 1.77961 16.7047 0.0996094 10.2847 0.0996094C3.86465 0.0996094 0.0346528 1.77961 0.0346528 1.77961C0.0346528 1.77961 -0.305348 9.20961 1.14465 13.4096C3.71465 20.7996 10.2847 22.8796 10.2847 22.8796C10.2847 22.8796 16.8547 20.7996 19.4247 13.4096C20.8747 9.20961 20.5347 1.77961 20.5347 1.77961Z" fill="#FF0000"/><path d="M17.0947 8.19016V12.2802H12.3147V17.0602H8.2247V12.2802H3.4447V8.19016H8.2247V3.41016H12.3147V8.19016H17.0947Z" fill="white"/><path d="M29.2647 5.06039C29.5747 5.26039 29.9347 5.37039 30.4247 5.37039C31.0647 5.37039 31.6047 5.04039 31.6047 4.30039C31.6047 3.27039 29.2047 3.14039 29.2047 1.77039C29.2047 0.930393 29.9447 0.400391 30.8647 0.400391C31.1147 0.400391 31.5347 0.440393 31.8947 0.570393L31.8147 1.04039C31.5847 0.91039 31.2147 0.840393 30.8647 0.840393C30.3247 0.840393 29.7347 1.07039 29.7347 1.74039C29.7347 2.79039 32.1347 2.80039 32.1347 4.33039C32.1347 5.39039 31.2247 5.81039 30.4147 5.81039C29.9047 5.81039 29.5047 5.71039 29.2247 5.59039L29.2647 5.06039Z" fill="black"/><path d="M36.1747 2.41055C35.9247 2.30055 35.6147 2.21055 35.3547 2.21055C34.4347 2.21055 33.9147 2.88055 33.9147 3.81055C33.9147 4.68055 34.4447 5.41055 35.3047 5.41055C35.6047 5.41055 35.8847 5.34055 36.1647 5.24055L36.2047 5.68055C35.8847 5.79055 35.5847 5.81055 35.2247 5.81055C33.9947 5.81055 33.3947 4.87055 33.3947 3.81055C33.3947 2.63055 34.1547 1.81055 35.2847 1.81055C35.7447 1.81055 36.0747 1.92055 36.2047 1.96055L36.1747 2.41055Z" fill="black"/><path d="M37.6047 0.0996094H38.0747V2.54961H38.0947C38.2947 2.12961 38.7247 1.80961 39.2847 1.80961C40.3147 1.80961 40.5947 2.48961 40.5947 3.43961V5.72961H40.1247V3.44961C40.1247 2.78961 39.9947 2.21961 39.2147 2.21961C38.3747 2.21961 38.0847 3.01961 38.0847 3.67961V5.72961H37.6147V0.0996094H37.6047Z" fill="black"/><path d="M46.2847 5.73039H45.7147L44.6747 2.42039H44.6647L43.6247 5.73039H43.0547L41.8247 1.90039H42.3447L43.3547 5.21039H43.3747L44.4447 1.90039H45.0147L46.0247 5.21039H46.0347L47.0947 1.90039H47.5647L46.2847 5.73039Z" fill="black"/><path d="M51.3247 5.61031C50.9947 5.74031 50.5647 5.82031 50.2147 5.82031C48.9447 5.82031 48.4747 4.96031 48.4747 3.82031C48.4747 2.65031 49.1247 1.82031 50.0847 1.82031C51.1647 1.82031 51.6047 2.69031 51.6047 3.72031V3.96031H48.9847C48.9847 4.77031 49.4247 5.42031 50.2447 5.42031C50.5847 5.42031 51.0947 5.28031 51.3147 5.13031V5.61031H51.3247ZM51.0947 3.54031C51.0947 2.87031 50.8247 2.21031 50.1147 2.21031C49.4147 2.21031 48.9947 2.91031 48.9947 3.54031H51.0947Z" fill="black"/><path d="M53.5647 1.03039H53.0947V0.400391H53.5647V1.03039ZM53.0947 1.90039H53.5647V5.73039H53.0947V1.90039Z" fill="black"/><path d="M54.9948 5.33062L57.2947 2.30062H55.0848V1.89062H57.8447V2.30062L55.5448 5.32063H57.8447V5.73063H54.9948V5.33062Z" fill="black"/><path d="M61.8247 5.61031C61.4947 5.74031 61.0647 5.82031 60.7147 5.82031C59.4447 5.82031 58.9747 4.96031 58.9747 3.82031C58.9747 2.65031 59.6247 1.82031 60.5847 1.82031C61.6647 1.82031 62.1047 2.69031 62.1047 3.72031V3.96031H59.4847C59.4847 4.77031 59.9247 5.42031 60.7447 5.42031C61.0847 5.42031 61.5947 5.28031 61.8147 5.13031V5.61031H61.8247ZM61.5947 3.54031C61.5947 2.87031 61.3247 2.21031 60.6147 2.21031C59.9147 2.21031 59.4947 2.91031 59.4947 3.54031H61.5947Z" fill="black"/><path d="M63.5847 2.75078C63.5847 2.33078 63.5847 2.17078 63.5547 1.89078H64.0247V2.63078H64.0447C64.2147 2.20078 64.5447 1.80078 65.0247 1.80078C65.1347 1.80078 65.2747 1.82078 65.3547 1.84078V2.34078C65.2547 2.31078 65.1247 2.29078 65.0147 2.29078C64.2647 2.29078 64.0647 3.13078 64.0647 3.82078V5.71078H63.5947V2.75078H63.5847Z" fill="black"/><path d="M67.1347 1.03039H66.6647V0.400391H67.1347V1.03039ZM66.6647 1.90039H67.1347V5.73039H66.6647V1.90039Z" fill="black"/><path d="M68.6247 5.17055C68.9147 5.31055 69.2547 5.41055 69.6247 5.41055C70.0747 5.41055 70.4747 5.16055 70.4747 4.73055C70.4747 3.82055 68.6347 3.96055 68.6347 2.85055C68.6347 2.09055 69.2547 1.81055 69.8847 1.81055C70.0847 1.81055 70.4947 1.85055 70.8347 1.98055L70.7747 2.39055C70.5247 2.28055 70.1847 2.21055 69.9247 2.21055C69.4347 2.21055 69.0947 2.36055 69.0947 2.85055C69.0947 3.56055 70.9747 3.47055 70.9747 4.73055C70.9747 5.54055 70.2147 5.82055 69.6347 5.82055C69.2647 5.82055 68.9047 5.78055 68.5647 5.64055L68.6247 5.17055Z" fill="black"/><path d="M74.9048 2.41055C74.6448 2.30055 74.3448 2.21055 74.0848 2.21055C73.1648 2.21055 72.6448 2.88055 72.6448 3.81055C72.6448 4.68055 73.1748 5.41055 74.0348 5.41055C74.3348 5.41055 74.6148 5.34055 74.8948 5.24055L74.9348 5.68055C74.6148 5.79055 74.3148 5.81055 73.9548 5.81055C72.7248 5.81055 72.1248 4.87055 72.1248 3.81055C72.1248 2.63055 72.8848 1.81055 74.0148 1.81055C74.4748 1.81055 74.8048 1.92055 74.9348 1.96055L74.9048 2.41055Z" fill="black"/><path d="M76.3347 0.0996094H76.8047V2.54961H76.8147C77.0147 2.12961 77.4447 1.80961 78.0047 1.80961C79.0347 1.80961 79.3147 2.48961 79.3147 3.43961V5.72961H78.8447V3.44961C78.8447 2.78961 78.7147 2.21961 77.9347 2.21961C77.0947 2.21961 76.8047 3.01961 76.8047 3.67961V5.72961H76.3347V0.0996094Z" fill="black"/><path d="M83.6447 5.61031C83.3147 5.74031 82.8847 5.82031 82.5347 5.82031C81.2647 5.82031 80.7947 4.96031 80.7947 3.82031C80.7947 2.65031 81.4447 1.82031 82.4047 1.82031C83.4847 1.82031 83.9247 2.69031 83.9247 3.72031V3.96031H81.3047C81.3047 4.77031 81.7447 5.42031 82.5647 5.42031C82.9147 5.42031 83.4147 5.28031 83.6347 5.13031V5.61031H83.6447ZM83.4147 3.54031C83.4147 2.87031 83.1447 2.21031 82.4447 2.21031C81.7447 2.21031 81.3147 2.91031 81.3147 3.54031H83.4147Z" fill="black"/><path d="M88.1247 0.490234H90.6947V0.940235H88.6448V2.81023H90.5847V3.26023H88.6448V5.28024H90.7747V5.73024H88.1147V0.490234H88.1247Z" fill="black"/><path d="M92.8646 1.03039H92.3947V0.400391H92.8646V1.03039ZM92.3947 1.90039H92.8646V5.73039H92.3947V1.90039Z" fill="black"/><path d="M97.6747 5.72938H97.2047V5.11938H97.1947C96.9447 5.60938 96.5447 5.81938 96.0047 5.81938C94.9547 5.81938 94.4247 4.94938 94.4247 3.81938C94.4247 2.65938 94.8747 1.81938 96.0047 1.81938C96.7547 1.81938 97.1347 2.36938 97.1947 2.55938H97.2047V0.109375H97.6747V5.72938ZM96.0747 5.40938C96.9147 5.40938 97.2047 4.50938 97.2047 3.80938C97.2047 3.10938 96.9147 2.20938 96.0747 2.20938C95.1747 2.20938 94.9447 3.06938 94.9447 3.80938C94.9347 4.55938 95.1747 5.40938 96.0747 5.40938Z" fill="black"/><path d="M102.425 5.41031C102.425 6.48031 101.945 7.35031 100.635 7.35031C100.135 7.35031 99.6747 7.21031 99.4747 7.15031L99.5147 6.68031C99.8047 6.83031 100.225 6.95031 100.635 6.95031C101.855 6.95031 101.955 6.06031 101.955 4.98031H101.935C101.675 5.54031 101.255 5.73031 100.775 5.73031C99.5547 5.73031 99.1647 4.66031 99.1647 3.82031C99.1647 2.66031 99.6147 1.82031 100.745 1.82031C101.255 1.82031 101.585 1.89031 101.935 2.35031H101.955V1.91031H102.425V5.41031ZM100.785 5.32031C101.645 5.32031 101.945 4.51031 101.945 3.81031C101.945 2.89031 101.675 2.21031 100.815 2.21031C99.9147 2.21031 99.6847 3.07031 99.6847 3.81031C99.6847 4.56031 99.9847 5.32031 100.785 5.32031Z" fill="black"/><path d="M106.715 5.61031C106.385 5.74031 105.955 5.82031 105.605 5.82031C104.335 5.82031 103.865 4.96031 103.865 3.82031C103.865 2.65031 104.515 1.82031 105.475 1.82031C106.555 1.82031 106.995 2.69031 106.995 3.72031V3.96031H104.375C104.375 4.77031 104.815 5.42031 105.635 5.42031C105.985 5.42031 106.485 5.28031 106.705 5.13031V5.61031H106.715ZM106.485 3.54031C106.485 2.87031 106.215 2.21031 105.515 2.21031C104.815 2.21031 104.385 2.91031 104.385 3.54031H106.485Z" fill="black"/><path d="M108.475 2.80055C108.475 2.51055 108.475 2.21055 108.445 1.90055H108.905V2.58055H108.915C109.075 2.23055 109.355 1.81055 110.155 1.81055C111.105 1.81055 111.465 2.44055 111.465 3.28055V5.73055H110.995V3.40055C110.995 2.68055 110.735 2.21055 110.085 2.21055C109.225 2.21055 108.955 2.97055 108.955 3.61055V5.73055H108.485V2.80055H108.475Z" fill="black"/><path d="M114.715 1.81055C115.955 1.81055 116.505 2.77055 116.505 3.81055C116.505 4.85055 115.955 5.81055 114.715 5.81055C113.475 5.81055 112.925 4.85055 112.925 3.81055C112.935 2.77055 113.475 1.81055 114.715 1.81055ZM114.715 5.41055C115.545 5.41055 115.985 4.70055 115.985 3.81055C115.985 2.92055 115.545 2.21055 114.715 2.21055C113.885 2.21055 113.445 2.92055 113.445 3.81055C113.445 4.70055 113.895 5.41055 114.715 5.41055Z" fill="black"/><path d="M117.675 5.17055C117.965 5.31055 118.305 5.41055 118.675 5.41055C119.125 5.41055 119.525 5.16055 119.525 4.73055C119.525 3.82055 117.685 3.96055 117.685 2.85055C117.685 2.09055 118.305 1.81055 118.935 1.81055C119.135 1.81055 119.545 1.85055 119.885 1.98055L119.845 2.39055C119.595 2.28055 119.255 2.21055 118.995 2.21055C118.505 2.21055 118.165 2.36055 118.165 2.85055C118.165 3.56055 120.045 3.47055 120.045 4.73055C120.045 5.54055 119.285 5.82055 118.705 5.82055C118.335 5.82055 117.965 5.78055 117.635 5.64055L117.675 5.17055Z" fill="black"/><path d="M121.185 5.17055C121.475 5.31055 121.815 5.41055 122.185 5.41055C122.635 5.41055 123.035 5.16055 123.035 4.73055C123.035 3.82055 121.195 3.96055 121.195 2.85055C121.195 2.09055 121.815 1.81055 122.445 1.81055C122.645 1.81055 123.055 1.85055 123.395 1.98055L123.355 2.39055C123.105 2.28055 122.765 2.21055 122.505 2.21055C122.015 2.21055 121.675 2.36055 121.675 2.85055C121.675 3.56055 123.555 3.47055 123.555 4.73055C123.555 5.54055 122.795 5.82055 122.215 5.82055C121.845 5.82055 121.475 5.78055 121.145 5.64055L121.185 5.17055Z" fill="black"/><path d="M127.545 5.61031C127.215 5.74031 126.785 5.82031 126.435 5.82031C125.165 5.82031 124.695 4.96031 124.695 3.82031C124.695 2.65031 125.345 1.82031 126.315 1.82031C127.395 1.82031 127.835 2.69031 127.835 3.72031V3.96031H125.215C125.215 4.77031 125.655 5.42031 126.475 5.42031C126.825 5.42031 127.325 5.28031 127.545 5.13031V5.61031ZM127.315 3.54031C127.315 2.87031 127.045 2.21031 126.335 2.21031C125.635 2.21031 125.205 2.91031 125.205 3.54031H127.315Z" fill="black"/><path d="M129.305 2.80055C129.305 2.51055 129.305 2.21055 129.275 1.90055H129.735V2.58055H129.755C129.915 2.23055 130.195 1.81055 130.995 1.81055C131.945 1.81055 132.305 2.44055 132.305 3.28055V5.73055H131.835V3.40055C131.835 2.68055 131.575 2.21055 130.925 2.21055C130.065 2.21055 129.795 2.97055 129.795 3.61055V5.73055H129.325V2.80055H129.305Z" fill="black"/><path d="M133.755 5.17055C134.045 5.31055 134.385 5.41055 134.755 5.41055C135.205 5.41055 135.605 5.16055 135.605 4.73055C135.605 3.82055 133.765 3.96055 133.765 2.85055C133.765 2.09055 134.385 1.81055 135.015 1.81055C135.215 1.81055 135.625 1.85055 135.965 1.98055L135.925 2.39055C135.675 2.28055 135.335 2.21055 135.075 2.21055C134.585 2.21055 134.245 2.36055 134.245 2.85055C134.245 3.56055 136.125 3.47055 136.125 4.73055C136.125 5.54055 135.365 5.82055 134.785 5.82055C134.415 5.82055 134.045 5.78055 133.715 5.64055L133.755 5.17055Z" fill="black"/><path d="M140.045 2.41055C139.795 2.30055 139.485 2.21055 139.225 2.21055C138.305 2.21055 137.785 2.88055 137.785 3.81055C137.785 4.68055 138.315 5.41055 139.175 5.41055C139.475 5.41055 139.755 5.34055 140.035 5.24055L140.075 5.68055C139.755 5.79055 139.455 5.81055 139.095 5.81055C137.865 5.81055 137.265 4.87055 137.265 3.81055C137.265 2.63055 138.025 1.81055 139.155 1.81055C139.615 1.81055 139.945 1.92055 140.075 1.96055L140.045 2.41055Z" fill="black"/><path d="M141.465 0.0996094H141.935V2.54961H141.945C142.145 2.12961 142.575 1.80961 143.135 1.80961C144.165 1.80961 144.445 2.48961 144.445 3.43961V5.72961H143.975V3.44961C143.975 2.78961 143.845 2.21961 143.065 2.21961C142.225 2.21961 141.935 3.01961 141.935 3.67961V5.72961H141.465V0.0996094Z" fill="black"/><path d="M148.425 5.11031H148.415C148.205 5.57031 147.675 5.82031 147.195 5.82031C146.105 5.82031 145.935 5.08031 145.935 4.74031C145.935 3.46031 147.305 3.40031 148.295 3.40031H148.385V3.20031C148.385 2.55031 148.155 2.22031 147.515 2.22031C147.115 2.22031 146.745 2.31031 146.395 2.54031V2.08031C146.685 1.94031 147.185 1.82031 147.515 1.82031C148.465 1.82031 148.855 2.25031 148.855 3.25031V4.94031C148.855 5.25031 148.855 5.48031 148.895 5.74031H148.425V5.11031ZM148.375 3.80031H148.245C147.425 3.80031 146.455 3.88031 146.455 4.72031C146.455 5.22031 146.815 5.41031 147.255 5.41031C148.365 5.41031 148.385 4.44031 148.385 4.03031V3.80031H148.375Z" fill="black"/><path d="M150.875 2.3H150.105V1.89H150.875V1.61C150.875 0.809997 150.905 0 151.885 0C152.035 0 152.235 0.019998 152.325 0.079998L152.295 0.489998C152.195 0.439998 152.055 0.41 151.915 0.41C151.265 0.41 151.335 1.11 151.335 1.57V1.9H152.195V2.31H151.335V5.73H150.865V2.3H150.875Z" fill="black"/><path d="M155.275 2.30078H154.405V4.78078C154.405 5.13078 154.535 5.41078 154.915 5.41078C155.095 5.41078 155.215 5.37078 155.355 5.32078L155.385 5.71078C155.275 5.75078 155.045 5.81078 154.805 5.81078C153.965 5.81078 153.935 5.23078 153.935 4.53078V2.29078H153.185V1.88078H153.935V0.960781L154.405 0.800781V1.89078H155.275V2.30078Z" fill="black"/><path d="M33.0047 11.4205C32.6747 11.2505 32.2047 11.1905 31.8347 11.1905C30.4747 11.1905 29.7147 12.1505 29.7147 13.4505C29.7147 14.7705 30.4547 15.7105 31.8347 15.7105C32.1847 15.7105 32.7047 15.6705 33.0047 15.4805L33.0347 15.9305C32.7447 16.1005 32.1647 16.1505 31.8347 16.1505C30.1847 16.1505 29.1947 15.0605 29.1947 13.4405C29.1947 11.8505 30.2147 10.7305 31.8347 10.7305C32.1447 10.7305 32.7647 10.7805 33.0347 10.9305L33.0047 11.4205Z" fill="black"/><path d="M36.4347 12.1602C37.6747 12.1602 38.2247 13.1202 38.2247 14.1602C38.2247 15.2002 37.6747 16.1602 36.4347 16.1602C35.1947 16.1602 34.6447 15.2002 34.6447 14.1602C34.6447 13.1202 35.1947 12.1602 36.4347 12.1602ZM36.4347 15.7602C37.2647 15.7602 37.7047 15.0502 37.7047 14.1602C37.7047 13.2702 37.2647 12.5602 36.4347 12.5602C35.6047 12.5602 35.1647 13.2702 35.1647 14.1602C35.1647 15.0502 35.6047 15.7602 36.4347 15.7602Z" fill="black"/><path d="M39.6847 13.1502C39.6847 12.8602 39.6847 12.5602 39.6547 12.2502H40.1147V12.9302H40.1247C40.2847 12.5802 40.5647 12.1602 41.3647 12.1602C42.3147 12.1602 42.6747 12.7902 42.6747 13.6302V16.0802H42.2047V13.7502C42.2047 13.0302 41.9447 12.5602 41.2947 12.5602C40.4347 12.5602 40.1647 13.3202 40.1647 13.9602V16.0802H39.6947V13.1502H39.6847Z" fill="black"/><path d="M44.7547 12.6496H43.9847V12.2396H44.7547V11.9596C44.7547 11.1596 44.7847 10.3496 45.7647 10.3496C45.9147 10.3496 46.1147 10.3696 46.2047 10.4296L46.1747 10.8396C46.0747 10.7896 45.9347 10.7596 45.7947 10.7596C45.1447 10.7596 45.2147 11.4596 45.2147 11.9196V12.2496H46.0747V12.6596H45.2147V16.0796H44.7447V12.6496H44.7547Z" fill="black"/><path d="M50.0747 15.9608C49.7447 16.0908 49.3147 16.1708 48.9647 16.1708C47.6947 16.1708 47.2247 15.3108 47.2247 14.1708C47.2247 13.0008 47.8747 12.1708 48.8447 12.1708C49.9247 12.1708 50.3647 13.0408 50.3647 14.0708V14.3108H47.7447C47.7447 15.1208 48.1847 15.7708 49.0047 15.7708C49.3547 15.7708 49.8547 15.6308 50.0747 15.4808V15.9608ZM49.8447 13.8908C49.8447 13.2208 49.5747 12.5608 48.8647 12.5608C48.1647 12.5608 47.7347 13.2608 47.7347 13.8908H49.8447ZM49.2047 10.5508H49.7947L48.8447 11.6308H48.5047L49.2047 10.5508Z" fill="black"/><path d="M54.8747 16.0809H54.4047V15.4709H54.3847C54.1247 15.9609 53.7347 16.1709 53.1947 16.1709C52.1447 16.1709 51.6147 15.3009 51.6147 14.1709C51.6147 13.0109 52.0647 12.1709 53.1947 12.1709C53.9447 12.1709 54.3147 12.7209 54.3847 12.9109H54.4047V10.4609H54.8747V16.0809ZM53.2747 15.7609C54.1147 15.7609 54.4047 14.8609 54.4047 14.1609C54.4047 13.4609 54.1147 12.5609 53.2747 12.5609C52.3747 12.5609 52.1447 13.4209 52.1447 14.1609C52.1347 14.9109 52.3647 15.7609 53.2747 15.7609Z" fill="black"/><path d="M59.1647 15.9608C58.8347 16.0908 58.4047 16.1708 58.0547 16.1708C56.7847 16.1708 56.3147 15.3108 56.3147 14.1708C56.3147 13.0008 56.9647 12.1708 57.9247 12.1708C59.0047 12.1708 59.4447 13.0408 59.4447 14.0708V14.3108H56.8247C56.8247 15.1208 57.2647 15.7708 58.0847 15.7708C58.4247 15.7708 58.9347 15.6308 59.1547 15.4808V15.9608H59.1647ZM58.9347 13.8908C58.9347 13.2208 58.6647 12.5608 57.9547 12.5608C57.2547 12.5608 56.8347 13.2608 56.8347 13.8908H58.9347ZM58.2947 10.5508H58.8847L57.9347 11.6308H57.5847L58.2947 10.5508Z" fill="black"/><path d="M60.9247 13.1004C60.9247 12.6804 60.9247 12.5204 60.8947 12.2404H61.3646V12.9804H61.3847C61.5547 12.5504 61.8746 12.1504 62.3646 12.1504C62.4746 12.1504 62.6146 12.1704 62.6946 12.1904V12.6904C62.5946 12.6604 62.4747 12.6404 62.3547 12.6404C61.6047 12.6404 61.4046 13.4804 61.4046 14.1704V16.0604H60.9347V13.1004H60.9247Z" fill="black"/><path d="M66.2047 15.4599H66.1847C65.9747 15.9199 65.4447 16.1699 64.9647 16.1699C63.8747 16.1699 63.7047 15.4299 63.7047 15.0899C63.7047 13.8099 65.0747 13.7499 66.0647 13.7499H66.1547V13.5499C66.1547 12.8999 65.9247 12.5699 65.2847 12.5699C64.8847 12.5699 64.5147 12.6599 64.1547 12.8899V12.4299C64.4447 12.2899 64.9447 12.1699 65.2847 12.1699C66.2347 12.1699 66.6247 12.5999 66.6247 13.5999V15.2899C66.6247 15.5999 66.6247 15.8299 66.6647 16.0899H66.2047V15.4599ZM66.1647 14.1499H66.0247C65.2047 14.1499 64.2347 14.2299 64.2347 15.0699C64.2347 15.5699 64.5947 15.7599 65.0247 15.7599C66.1347 15.7599 66.1547 14.7899 66.1547 14.3799V14.1499H66.1647Z" fill="black"/><path d="M69.9846 12.6506H69.1146V15.1306C69.1146 15.4806 69.2446 15.7606 69.6246 15.7606C69.8046 15.7606 69.9247 15.7206 70.0647 15.6706L70.0947 16.0606C69.9847 16.1006 69.7546 16.1606 69.5146 16.1606C68.6746 16.1606 68.6447 15.5806 68.6447 14.8806V12.6406H67.8947V12.2306H68.6447V11.3106L69.1146 11.1406V12.2306H69.9846V12.6506Z" fill="black"/><path d="M71.8847 11.38H71.4147V10.75H71.8847V11.38ZM71.4147 12.25H71.8847V16.08H71.4147V12.25Z" fill="black"/><path d="M75.1547 12.1602C76.3947 12.1602 76.9447 13.1202 76.9447 14.1602C76.9447 15.2002 76.3947 16.1602 75.1547 16.1602C73.9147 16.1602 73.3647 15.2002 73.3647 14.1602C73.3647 13.1202 73.9147 12.1602 75.1547 12.1602ZM75.1547 15.7602C75.9847 15.7602 76.4248 15.0502 76.4248 14.1602C76.4248 13.2702 75.9847 12.5602 75.1547 12.5602C74.3247 12.5602 73.8848 13.2702 73.8848 14.1602C73.8848 15.0502 74.3247 15.7602 75.1547 15.7602Z" fill="black"/><path d="M78.4148 13.1502C78.4148 12.8602 78.4148 12.5602 78.3848 12.2502H78.8448V12.9302H78.8648C79.0248 12.5802 79.3048 12.1602 80.1048 12.1602C81.0548 12.1602 81.4148 12.7902 81.4148 13.6302V16.0802H80.9448V13.7502C80.9448 13.0302 80.6948 12.5602 80.0348 12.5602C79.1748 12.5602 78.9048 13.3202 78.9048 13.9602V16.0802H78.4348V13.1502H78.4148Z" fill="black"/><path d="M85.5348 15.5202C85.8248 15.6602 86.1648 15.7602 86.5348 15.7602C86.9848 15.7602 87.3848 15.5102 87.3848 15.0802C87.3848 14.1702 85.5447 14.3102 85.5447 13.2002C85.5447 12.4402 86.1647 12.1602 86.7947 12.1602C86.9947 12.1602 87.4048 12.2002 87.7448 12.3302L87.7048 12.7402C87.4548 12.6302 87.1148 12.5602 86.8548 12.5602C86.3648 12.5602 86.0247 12.7102 86.0247 13.2002C86.0247 13.9102 87.9047 13.8202 87.9047 15.0802C87.9047 15.8902 87.1448 16.1702 86.5648 16.1702C86.1948 16.1702 85.8248 16.1302 85.4948 15.9902L85.5348 15.5202Z" fill="black"/><path d="M92.3147 15.1802C92.3147 15.4702 92.3147 15.7702 92.3447 16.0802H91.8847V15.3902H91.8647C91.7047 15.7402 91.4247 16.1602 90.6247 16.1602C89.6747 16.1602 89.3147 15.5302 89.3147 14.6902V12.2402H89.7847V14.5702C89.7847 15.2902 90.0447 15.7602 90.6947 15.7602C91.5547 15.7602 91.8247 15.0002 91.8247 14.3602V12.2402H92.2947V15.1802H92.3147Z" fill="black"/><path d="M94.5447 11.38H94.0747V10.75H94.5447V11.38ZM94.0747 12.25H94.5447V16.08H94.0747V12.25Z" fill="black"/><path d="M96.0348 15.5202C96.3248 15.6602 96.6648 15.7602 97.0348 15.7602C97.4848 15.7602 97.8848 15.5102 97.8848 15.0802C97.8848 14.1702 96.0447 14.3102 96.0447 13.2002C96.0447 12.4402 96.6647 12.1602 97.2947 12.1602C97.4947 12.1602 97.9048 12.2002 98.2448 12.3302L98.2048 12.7402C97.9548 12.6302 97.6148 12.5602 97.3548 12.5602C96.8648 12.5602 96.5247 12.7102 96.5247 13.2002C96.5247 13.9102 98.4047 13.8202 98.4047 15.0802C98.4047 15.8902 97.6448 16.1702 97.0648 16.1702C96.6948 16.1702 96.3248 16.1302 95.9948 15.9902L96.0348 15.5202Z" fill="black"/><path d="M99.5348 15.5202C99.8248 15.6602 100.165 15.7602 100.535 15.7602C100.985 15.7602 101.385 15.5102 101.385 15.0802C101.385 14.1702 99.5447 14.3102 99.5447 13.2002C99.5447 12.4402 100.165 12.1602 100.795 12.1602C100.995 12.1602 101.405 12.2002 101.745 12.3302L101.705 12.7402C101.455 12.6302 101.115 12.5602 100.855 12.5602C100.365 12.5602 100.025 12.7102 100.025 13.2002C100.025 13.9102 101.905 13.8202 101.905 15.0802C101.905 15.8902 101.145 16.1702 100.565 16.1702C100.195 16.1702 99.8248 16.1302 99.4948 15.9902L99.5348 15.5202Z" fill="black"/><path d="M105.895 15.9599C105.565 16.0899 105.135 16.1699 104.785 16.1699C103.515 16.1699 103.045 15.3099 103.045 14.1699C103.045 12.9999 103.695 12.1699 104.665 12.1699C105.745 12.1699 106.185 13.0399 106.185 14.0699V14.3099H103.565C103.565 15.1199 104.005 15.7699 104.825 15.7699C105.175 15.7699 105.675 15.6299 105.895 15.4799V15.9599ZM105.665 13.8899C105.665 13.2199 105.395 12.5599 104.685 12.5599C103.985 12.5599 103.555 13.2599 103.555 13.8899H105.665Z" fill="black"/><path d="M33.0047 21.7701C32.6747 21.6001 32.2047 21.5401 31.8347 21.5401C30.4747 21.5401 29.7147 22.5001 29.7147 23.8001C29.7147 25.1201 30.4547 26.0601 31.8347 26.0601C32.1847 26.0601 32.7047 26.0201 33.0047 25.8301L33.0347 26.2801C32.7447 26.4501 32.1647 26.5001 31.8347 26.5001C30.1847 26.5001 29.1947 25.4101 29.1947 23.7901C29.1947 22.2001 30.2147 21.0801 31.8347 21.0801C32.1447 21.0801 32.7647 21.1301 33.0347 21.2801L33.0047 21.7701Z" fill="black"/><path d="M36.4347 22.5098C37.6747 22.5098 38.2247 23.4698 38.2247 24.5098C38.2247 25.5498 37.6747 26.5098 36.4347 26.5098C35.1947 26.5098 34.6447 25.5498 34.6447 24.5098C34.6447 23.4698 35.1947 22.5098 36.4347 22.5098ZM36.4347 26.1098C37.2647 26.1098 37.7047 25.3998 37.7047 24.5098C37.7047 23.6198 37.2647 22.9098 36.4347 22.9098C35.6047 22.9098 35.1647 23.6198 35.1647 24.5098C35.1647 25.3998 35.6047 26.1098 36.4347 26.1098Z" fill="black"/><path d="M39.6847 23.4998C39.6847 23.2098 39.6847 22.9098 39.6547 22.5998H40.1147V23.2798H40.1247C40.2847 22.9298 40.5647 22.5098 41.3647 22.5098C42.3147 22.5098 42.6747 23.1398 42.6747 23.9798V26.4298H42.2047V24.0998C42.2047 23.3798 41.9447 22.9098 41.2947 22.9098C40.4347 22.9098 40.1647 23.6698 40.1647 24.3098V26.4298H39.6947V23.4998H39.6847Z" fill="black"/><path d="M44.7547 22.9992H43.9847V22.5892H44.7547V22.3092C44.7547 21.5092 44.7847 20.6992 45.7647 20.6992C45.9147 20.6992 46.1147 20.7192 46.2047 20.7792L46.1847 21.1892C46.0847 21.1392 45.9447 21.1092 45.8047 21.1092C45.1547 21.1092 45.2247 21.8092 45.2247 22.2692V22.5992H46.0847V23.0092H45.2247V26.4292H44.7547V22.9992Z" fill="black"/><path d="M50.0747 26.3095C49.7447 26.4395 49.3147 26.5195 48.9647 26.5195C47.6947 26.5195 47.2247 25.6595 47.2247 24.5195C47.2247 23.3495 47.8747 22.5195 48.8447 22.5195C49.9247 22.5195 50.3647 23.3895 50.3647 24.4195V24.6595H47.7447C47.7447 25.4695 48.1847 26.1195 49.0047 26.1195C49.3547 26.1195 49.8547 25.9795 50.0747 25.8295V26.3095ZM49.8447 24.2395C49.8447 23.5695 49.5747 22.9095 48.8647 22.9095C48.1647 22.9095 47.7347 23.6095 47.7347 24.2395H49.8447Z" fill="black"/><path d="M54.8747 26.4305H54.4047V25.8205H54.3847C54.1247 26.3105 53.7347 26.5205 53.1947 26.5205C52.1447 26.5205 51.6147 25.6505 51.6147 24.5205C51.6147 23.3605 52.0647 22.5205 53.1947 22.5205C53.9447 22.5205 54.3147 23.0705 54.3847 23.2605H54.4047V20.8105H54.8747V26.4305ZM53.2747 26.1105C54.1147 26.1105 54.4047 25.2105 54.4047 24.5105C54.4047 23.8105 54.1147 22.9105 53.2747 22.9105C52.3747 22.9105 52.1447 23.7705 52.1447 24.5105C52.1347 25.2605 52.3647 26.1105 53.2747 26.1105Z" fill="black"/><path d="M59.1647 26.3095C58.8347 26.4395 58.4047 26.5195 58.0547 26.5195C56.7847 26.5195 56.3147 25.6595 56.3147 24.5195C56.3147 23.3495 56.9647 22.5195 57.9247 22.5195C59.0047 22.5195 59.4447 23.3895 59.4447 24.4195V24.6595H56.8247C56.8247 25.4695 57.2647 26.1195 58.0847 26.1195C58.4247 26.1195 58.9347 25.9795 59.1547 25.8295V26.3095H59.1647ZM58.9347 24.2395C58.9347 23.5695 58.6647 22.9095 57.9547 22.9095C57.2547 22.9095 56.8347 23.6095 56.8347 24.2395H58.9347Z" fill="black"/><path d="M60.9247 23.45C60.9247 23.03 60.9247 22.87 60.8947 22.59H61.3646V23.33H61.3847C61.5547 22.9 61.8746 22.5 62.3646 22.5C62.4746 22.5 62.6146 22.52 62.6946 22.54V23.04C62.5946 23.01 62.4747 23 62.3547 23C61.6047 23 61.4046 23.84 61.4046 24.53V26.42H60.9347V23.45H60.9247Z" fill="black"/><path d="M66.2047 25.8095H66.1847C65.9747 26.2695 65.4447 26.5195 64.9647 26.5195C63.8747 26.5195 63.7047 25.7795 63.7047 25.4395C63.7047 24.1595 65.0747 24.0995 66.0647 24.0995H66.1547V23.8995C66.1547 23.2495 65.9247 22.9195 65.2847 22.9195C64.8847 22.9195 64.5147 23.0095 64.1547 23.2395V22.7795C64.4447 22.6395 64.9447 22.5195 65.2847 22.5195C66.2347 22.5195 66.6247 22.9495 66.6247 23.9495V25.6395C66.6247 25.9495 66.6247 26.1795 66.6647 26.4395H66.2047V25.8095ZM66.1647 24.4995H66.0247C65.2047 24.4995 64.2347 24.5795 64.2347 25.4195C64.2347 25.9195 64.5947 26.1095 65.0247 26.1095C66.1347 26.1095 66.1547 25.1395 66.1547 24.7295V24.4995H66.1647Z" fill="black"/><path d="M67.9847 26.0298L70.2847 22.9998H68.0747V22.5898H70.8347V22.9998L68.5347 26.0198H70.8347V26.4298H67.9847V26.0298Z" fill="black"/><path d="M72.7248 21.7296H72.2548V21.0996H72.7248V21.7296ZM72.2548 22.5996H72.7248V26.4296H72.2548V22.5996Z" fill="black"/><path d="M75.9947 22.5098C77.2347 22.5098 77.7847 23.4698 77.7847 24.5098C77.7847 25.5498 77.2347 26.5098 75.9947 26.5098C74.7547 26.5098 74.2047 25.5498 74.2047 24.5098C74.2047 23.4698 74.7547 22.5098 75.9947 22.5098ZM75.9947 26.1098C76.8247 26.1098 77.2647 25.3998 77.2647 24.5098C77.2647 23.6198 76.8247 22.9098 75.9947 22.9098C75.1647 22.9098 74.7247 23.6198 74.7247 24.5098C74.7247 25.3998 75.1647 26.1098 75.9947 26.1098Z" fill="black"/><path d="M79.2547 23.4998C79.2547 23.2098 79.2547 22.9098 79.2247 22.5998H79.6847V23.2798H79.7047C79.8647 22.9298 80.1447 22.5098 80.9447 22.5098C81.8947 22.5098 82.2547 23.1398 82.2547 23.9798V26.4298H81.7747V24.0998C81.7747 23.3798 81.5147 22.9098 80.8647 22.9098C80.0047 22.9098 79.7347 23.6698 79.7347 24.3098V26.4298H79.2647V23.4998H79.2547Z" fill="black"/><path d="M86.5747 26.3095C86.2447 26.4395 85.8147 26.5195 85.4647 26.5195C84.1947 26.5195 83.7247 25.6595 83.7247 24.5195C83.7247 23.3495 84.3747 22.5195 85.3347 22.5195C86.4147 22.5195 86.8547 23.3895 86.8547 24.4195V24.6595H84.2347C84.2347 25.4695 84.6747 26.1195 85.4947 26.1195C85.8347 26.1195 86.3447 25.9795 86.5647 25.8295V26.3095H86.5747ZM86.3347 24.2395C86.3347 23.5695 86.0647 22.9095 85.3547 22.9095C84.6547 22.9095 84.2347 23.6095 84.2347 24.2395H86.3347Z" fill="black"/><path d="M90.9047 25.7596C91.2147 25.9596 91.5747 26.0696 92.0647 26.0696C92.7147 26.0696 93.2447 25.7396 93.2447 24.9996C93.2447 23.9696 90.8447 23.8396 90.8447 22.4696C90.8447 21.6296 91.5847 21.0996 92.5047 21.0996C92.7547 21.0996 93.1747 21.1396 93.5347 21.2696L93.4547 21.7396C93.2247 21.6096 92.8547 21.5396 92.5047 21.5396C91.9647 21.5396 91.3747 21.7696 91.3747 22.4396C91.3747 23.4896 93.7747 23.4996 93.7747 25.0296C93.7747 26.0896 92.8647 26.5096 92.0547 26.5096C91.5447 26.5096 91.1447 26.4096 90.8647 26.2896L90.9047 25.7596Z" fill="black"/><path d="M96.6547 26.4296H96.0947L94.7947 22.5996H95.3147L96.3747 25.9096H96.3847L97.4947 22.5996H97.9947L96.6547 26.4296Z" fill="black"/><path d="M99.7047 21.7296H99.2347V21.0996H99.7047V21.7296ZM99.2347 22.5996H99.7047V26.4296H99.2347V22.5996Z" fill="black"/><path d="M101.135 26.0298L103.435 22.9998H101.225V22.5898H103.985V22.9998L101.675 26.0198H103.985V26.4298H101.135V26.0298Z" fill="black"/><path d="M105.045 26.0298L107.345 22.9998H105.135V22.5898H107.895V22.9998L105.595 26.0198H107.895V26.4298H105.045V26.0298Z" fill="black"/><path d="M111.885 26.3095C111.555 26.4395 111.125 26.5195 110.775 26.5195C109.505 26.5195 109.035 25.6595 109.035 24.5195C109.035 23.3495 109.685 22.5195 110.655 22.5195C111.735 22.5195 112.175 23.3895 112.175 24.4195V24.6595H109.555C109.555 25.4695 109.995 26.1195 110.815 26.1195C111.165 26.1195 111.665 25.9795 111.885 25.8295V26.3095ZM111.655 24.2395C111.655 23.5695 111.385 22.9095 110.675 22.9095C109.975 22.9095 109.545 23.6095 109.545 24.2395H111.655Z" fill="black"/><path d="M113.645 23.45C113.645 23.03 113.645 22.87 113.615 22.59H114.085V23.33H114.105C114.275 22.9 114.595 22.5 115.085 22.5C115.195 22.5 115.335 22.52 115.415 22.54V23.04C115.315 23.01 115.195 23 115.075 23C114.325 23 114.125 23.84 114.125 24.53V26.42H113.655V23.45H113.645Z" fill="black"/><path d="M118.915 25.8095H118.895C118.685 26.2695 118.155 26.5195 117.675 26.5195C116.585 26.5195 116.415 25.7795 116.415 25.4395C116.415 24.1595 117.785 24.0995 118.775 24.0995H118.865V23.8995C118.865 23.2495 118.635 22.9195 117.995 22.9195C117.595 22.9195 117.225 23.0095 116.865 23.2395V22.7795C117.155 22.6395 117.655 22.5195 117.995 22.5195C118.945 22.5195 119.335 22.9495 119.335 23.9495V25.6395C119.335 25.9495 119.335 26.1795 119.375 26.4395H118.915V25.8095ZM118.875 24.4995H118.745C117.925 24.4995 116.955 24.5795 116.955 25.4195C116.955 25.9195 117.315 26.1095 117.755 26.1095C118.865 26.1095 118.885 25.1395 118.885 24.7295V24.4995H118.875Z" fill="black"/><path d="M33.0047 32.1197C32.6747 31.9497 32.2047 31.8897 31.8347 31.8897C30.4747 31.8897 29.7147 32.8497 29.7147 34.1497C29.7147 35.4697 30.4547 36.4097 31.8347 36.4097C32.1847 36.4097 32.7047 36.3697 33.0047 36.1797L33.0347 36.6297C32.7447 36.7997 32.1647 36.8497 31.8347 36.8497C30.1847 36.8497 29.1947 35.7597 29.1947 34.1397C29.1947 32.5497 30.2147 31.4297 31.8347 31.4297C32.1447 31.4297 32.7647 31.4797 33.0347 31.6297L33.0047 32.1197Z" fill="black"/><path d="M36.4347 32.8594C37.6747 32.8594 38.2247 33.8194 38.2247 34.8594C38.2247 35.8994 37.6747 36.8594 36.4347 36.8594C35.1947 36.8594 34.6447 35.8994 34.6447 34.8594C34.6447 33.8194 35.1947 32.8594 36.4347 32.8594ZM36.4347 36.4594C37.2647 36.4594 37.7047 35.7494 37.7047 34.8594C37.7047 33.9694 37.2647 33.2594 36.4347 33.2594C35.6047 33.2594 35.1647 33.9694 35.1647 34.8594C35.1647 35.7494 35.6047 36.4594 36.4347 36.4594Z" fill="black"/><path d="M39.6847 33.8494C39.6847 33.5594 39.6847 33.2594 39.6547 32.9494H40.1147V33.6294H40.1247C40.2847 33.2794 40.5647 32.8594 41.3647 32.8594C42.3147 32.8594 42.6747 33.4894 42.6747 34.3294V36.7794H42.2047V34.4494C42.2047 33.7294 41.9447 33.2594 41.2947 33.2594C40.4347 33.2594 40.1647 34.0194 40.1647 34.6594V36.7794H39.6947V33.8494H39.6847Z" fill="black"/><path d="M44.7547 33.3508H43.9847V32.9408H44.7547V32.6608C44.7547 31.8608 44.7847 31.0508 45.7647 31.0508C45.9147 31.0508 46.1147 31.0708 46.2047 31.1308L46.1747 31.5408C46.0747 31.4908 45.9347 31.4608 45.7947 31.4608C45.1447 31.4608 45.2147 32.1608 45.2147 32.6208V32.9508H46.0747V33.3608H45.2147V36.7808H44.7447V33.3508H44.7547Z" fill="black"/><path d="M50.0747 36.6591C49.7447 36.7891 49.3147 36.8691 48.9647 36.8691C47.6947 36.8691 47.2247 36.0091 47.2247 34.8691C47.2247 33.6991 47.8747 32.8691 48.8447 32.8691C49.9247 32.8691 50.3647 33.7391 50.3647 34.7691V35.0091H47.7447C47.7447 35.8191 48.1847 36.4691 49.0047 36.4691C49.3547 36.4691 49.8547 36.3291 50.0747 36.1791V36.6591ZM49.8447 34.5891C49.8447 33.9191 49.5747 33.2591 48.8647 33.2591C48.1647 33.2591 47.7347 33.9591 47.7347 34.5891H49.8447Z" fill="black"/><path d="M54.8747 36.7802H54.4047V36.1702H54.3847C54.1247 36.6602 53.7347 36.8702 53.1947 36.8702C52.1447 36.8702 51.6147 36.0002 51.6147 34.8702C51.6147 33.7102 52.0647 32.8702 53.1947 32.8702C53.9447 32.8702 54.3147 33.4202 54.3847 33.6102H54.4047V31.1602H54.8747V36.7802ZM53.2747 36.4602C54.1147 36.4602 54.4047 35.5602 54.4047 34.8602C54.4047 34.1602 54.1147 33.2602 53.2747 33.2602C52.3747 33.2602 52.1447 34.1202 52.1447 34.8602C52.1347 35.6102 52.3647 36.4602 53.2747 36.4602Z" fill="black"/><path d="M59.1647 36.6591C58.8347 36.7891 58.4047 36.8691 58.0547 36.8691C56.7847 36.8691 56.3147 36.0091 56.3147 34.8691C56.3147 33.6991 56.9647 32.8691 57.9247 32.8691C59.0047 32.8691 59.4447 33.7391 59.4447 34.7691V35.0091H56.8247C56.8247 35.8191 57.2647 36.4691 58.0847 36.4691C58.4247 36.4691 58.9347 36.3291 59.1547 36.1791V36.6591H59.1647ZM58.9347 34.5891C58.9347 33.9191 58.6647 33.2591 57.9547 33.2591C57.2547 33.2591 56.8347 33.9591 56.8347 34.5891H58.9347Z" fill="black"/><path d="M60.9247 33.7996C60.9247 33.3796 60.9247 33.2196 60.8947 32.9396H61.3646V33.6796H61.3847C61.5547 33.2496 61.8746 32.8496 62.3646 32.8496C62.4746 32.8496 62.6146 32.8696 62.6946 32.8896V33.3896C62.5946 33.3596 62.4747 33.3496 62.3547 33.3496C61.6047 33.3496 61.4046 34.1896 61.4046 34.8796V36.7696H60.9347V33.7996H60.9247Z" fill="black"/><path d="M66.2047 36.1591H66.1847C65.9747 36.6191 65.4447 36.8691 64.9647 36.8691C63.8747 36.8691 63.7047 36.1291 63.7047 35.7891C63.7047 34.5091 65.0747 34.4491 66.0647 34.4491H66.1547V34.2491C66.1547 33.5991 65.9247 33.2691 65.2847 33.2691C64.8847 33.2691 64.5147 33.3591 64.1547 33.5891V33.1291C64.4447 32.9891 64.9447 32.8691 65.2847 32.8691C66.2347 32.8691 66.6247 33.2991 66.6247 34.2991V35.9891C66.6247 36.2991 66.6247 36.5291 66.6647 36.7891H66.2047V36.1591ZM66.1647 34.8491H66.0247C65.2047 34.8491 64.2347 34.9291 64.2347 35.7691C64.2347 36.2691 64.5947 36.4591 65.0247 36.4591C66.1347 36.4591 66.1547 35.4891 66.1547 35.0791V34.8491H66.1647Z" fill="black"/><path d="M67.9847 36.3795L70.2847 33.3495H68.0747V32.9395H70.8347V33.3495L68.5347 36.3695H70.8347V36.7794H67.9847V36.3795Z" fill="black"/><path d="M72.7248 32.0792H72.2548V31.4492H72.7248V32.0792ZM72.2548 32.9492H72.7248V36.7792H72.2548V32.9492Z" fill="black"/><path d="M77.4847 35.8795C77.4847 36.1695 77.4847 36.4694 77.5147 36.7794H77.0547V36.0895H77.0447C76.8847 36.4395 76.6047 36.8595 75.8047 36.8595C74.8547 36.8595 74.4948 36.2295 74.4948 35.3895V32.9395H74.9648V35.2695C74.9648 35.9895 75.2147 36.4594 75.8747 36.4594C76.7347 36.4594 77.0048 35.6995 77.0048 35.0595V32.9395H77.4747V35.8795H77.4847Z" fill="black"/><path d="M79.2547 33.8494C79.2547 33.5594 79.2547 33.2594 79.2247 32.9494H79.6847V33.6294H79.7047C79.8647 33.2794 80.1447 32.8594 80.9447 32.8594C81.8947 32.8594 82.2547 33.4894 82.2547 34.3294V36.7794H81.7747V34.4494C81.7747 33.7294 81.5147 33.2594 80.8647 33.2594C80.0047 33.2594 79.7347 34.0194 79.7347 34.6594V36.7794H79.2647V33.8494H79.2547Z" fill="black"/><path d="M86.3747 36.2194C86.6647 36.3594 87.0047 36.4594 87.3747 36.4594C87.8247 36.4594 88.2247 36.2094 88.2247 35.7794C88.2247 34.8694 86.3847 35.0094 86.3847 33.8994C86.3847 33.1394 87.0047 32.8594 87.6347 32.8594C87.8347 32.8594 88.2447 32.8994 88.5847 33.0294L88.5447 33.4394C88.2947 33.3294 87.9547 33.2594 87.6947 33.2594C87.2047 33.2594 86.8647 33.4094 86.8647 33.8994C86.8647 34.6094 88.7447 34.5194 88.7447 35.7794C88.7447 36.5894 87.9847 36.8694 87.4047 36.8694C87.0347 36.8694 86.6647 36.8294 86.3347 36.6894L86.3747 36.2194Z" fill="black"/><path d="M91.4948 36.7792H90.9348L89.6348 32.9492H90.1548L91.2148 36.2592H91.2348L92.3448 32.9492H92.8448L91.4948 36.7792Z" fill="black"/><path d="M94.5547 32.0792H94.0847V31.4492H94.5547V32.0792ZM94.0847 32.9492H94.5547V36.7792H94.0847V32.9492Z" fill="black"/><path d="M95.9847 36.3795L98.2847 33.3495H96.0747V32.9395H98.8347V33.3495L96.5247 36.3695H98.8347V36.7794H95.9847V36.3795Z" fill="black"/><path d="M100.245 33.7996C100.245 33.3796 100.245 33.2196 100.215 32.9396H100.685V33.6796H100.695C100.865 33.2496 101.195 32.8496 101.675 32.8496C101.785 32.8496 101.925 32.8696 102.005 32.8896V33.3896C101.905 33.3596 101.785 33.3496 101.655 33.3496C100.905 33.3496 100.705 34.1896 100.705 34.8796V36.7696H100.235V33.7996H100.245Z" fill="black"/><path d="M105.525 36.1591H105.515C105.305 36.6191 104.775 36.8691 104.295 36.8691C103.205 36.8691 103.035 36.1291 103.035 35.7891C103.035 34.5091 104.405 34.4491 105.395 34.4491H105.485V34.2491C105.485 33.5991 105.255 33.2691 104.615 33.2691C104.215 33.2691 103.845 33.3591 103.485 33.5891V33.1291C103.775 32.9891 104.275 32.8691 104.615 32.8691C105.565 32.8691 105.955 33.2991 105.955 34.2991V35.9891C105.955 36.2991 105.955 36.5291 105.995 36.7891H105.525V36.1591ZM105.485 34.8491H105.355C104.535 34.8491 103.565 34.9291 103.565 35.7691C103.565 36.2691 103.925 36.4591 104.365 36.4591C105.475 36.4591 105.495 35.4891 105.495 35.0791V34.8491H105.485Z" fill="black"/><path d="M29.2647 51.6307C29.5747 51.8307 29.9347 51.9407 30.4247 51.9407C31.0647 51.9407 31.6047 51.6107 31.6047 50.8707C31.6047 49.8407 29.2047 49.7107 29.2047 48.3407C29.2047 47.5007 29.9447 46.9707 30.8647 46.9707C31.1147 46.9707 31.5347 47.0107 31.8947 47.1407L31.8147 47.6107C31.5847 47.4807 31.2147 47.4107 30.8647 47.4107C30.3247 47.4107 29.7347 47.6407 29.7347 48.3107C29.7347 49.3607 32.1347 49.3707 32.1347 50.9007C32.1347 51.9607 31.2247 52.3807 30.4147 52.3807C29.9047 52.3807 29.5047 52.2807 29.2247 52.1607L29.2647 51.6307Z" fill="black"/><path d="M37.6247 52.3007H37.0547L36.0147 48.9907H36.0047L34.9647 52.3007H34.3747L33.1447 48.4707H33.6647L34.6747 51.7807H34.6947L35.7647 48.4707H36.3347L37.3447 51.7807H37.3547L38.4147 48.4707H38.8847L37.6247 52.3007Z" fill="black"/><path d="M40.5747 47.6007H40.1047V46.9707H40.5747V47.6007ZM40.1047 48.4707H40.5747V52.3007H40.1047V48.4707Z" fill="black"/><path d="M42.0647 51.7506C42.3547 51.8906 42.6947 51.9906 43.0647 51.9906C43.5147 51.9906 43.9147 51.7406 43.9147 51.3106C43.9147 50.4006 42.0747 50.5406 42.0747 49.4306C42.0747 48.6706 42.6947 48.3906 43.3247 48.3906C43.5247 48.3906 43.9347 48.4306 44.2747 48.5606L44.2347 48.9706C43.9847 48.8606 43.6447 48.7906 43.3847 48.7906C42.8947 48.7906 42.5547 48.9406 42.5547 49.4306C42.5547 50.1406 44.4347 50.0506 44.4347 51.3106C44.4347 52.1206 43.6747 52.4006 43.0947 52.4006C42.7247 52.4006 42.3547 52.3606 42.0247 52.2206L42.0647 51.7506Z" fill="black"/><path d="M45.5646 51.7506C45.8546 51.8906 46.1946 51.9906 46.5646 51.9906C47.0146 51.9906 47.4146 51.7406 47.4146 51.3106C47.4146 50.4006 45.5746 50.5406 45.5746 49.4306C45.5746 48.6706 46.1946 48.3906 46.8246 48.3906C47.0246 48.3906 47.4346 48.4306 47.7746 48.5606L47.7246 48.9706C47.4746 48.8606 47.1346 48.7906 46.8746 48.7906C46.3846 48.7906 46.0446 48.9406 46.0446 49.4306C46.0446 50.1406 47.9246 50.0506 47.9246 51.3106C47.9246 52.1206 47.1646 52.4006 46.5846 52.4006C46.2146 52.4006 45.8546 52.3606 45.5146 52.2206L45.5646 51.7506Z" fill="black"/><path d="M55.6848 47.6509C55.3548 47.4809 54.8848 47.4209 54.5148 47.4209C53.1548 47.4209 52.3948 48.3809 52.3948 49.6809C52.3948 51.0009 53.1348 51.9409 54.5148 51.9409C54.8648 51.9409 55.3848 51.9009 55.6848 51.7109L55.7148 52.1609C55.4248 52.3309 54.8448 52.3809 54.5148 52.3809C52.8648 52.3809 51.8748 51.2909 51.8748 49.6709C51.8748 48.0809 52.8948 46.9609 54.5148 46.9609C54.8248 46.9609 55.4448 47.0109 55.7148 47.1609L55.6848 47.6509Z" fill="black"/><path d="M59.1147 48.3809C60.3547 48.3809 60.9047 49.3409 60.9047 50.3809C60.9047 51.4209 60.3547 52.3809 59.1147 52.3809C57.8747 52.3809 57.3247 51.4209 57.3247 50.3809C57.3247 49.3409 57.8747 48.3809 59.1147 48.3809ZM59.1147 51.9909C59.9447 51.9909 60.3847 51.2809 60.3847 50.3909C60.3847 49.5009 59.9447 48.7909 59.1147 48.7909C58.2847 48.7909 57.8447 49.5009 57.8447 50.3909C57.8447 51.2709 58.2847 51.9909 59.1147 51.9909Z" fill="black"/><path d="M62.3747 49.3709C62.3747 49.0809 62.3747 48.7809 62.3447 48.4709H62.8047V49.1509H62.8247C62.9847 48.8009 63.2647 48.3809 64.0647 48.3809C65.0147 48.3809 65.3747 49.0109 65.3747 49.8509V52.3009H64.9047V49.9709C64.9047 49.2509 64.6447 48.7809 63.9947 48.7809C63.1347 48.7809 62.8647 49.5409 62.8647 50.1809V52.3009H62.3747V49.3709Z" fill="black"/><path d="M67.4547 48.8801H66.6747V48.4701H67.4447V48.1901C67.4447 47.3901 67.4747 46.5801 68.4547 46.5801C68.6047 46.5801 68.8047 46.6001 68.8947 46.6601L68.8647 47.0701C68.7647 47.0201 68.6247 46.9901 68.4847 46.9901C67.8447 46.9901 67.9047 47.6901 67.9047 48.1501V48.4801H68.7647V48.8901H67.9047V52.3101H67.4347V48.8801H67.4547Z" fill="black"/><path d="M72.7747 52.1806C72.4447 52.3106 72.0147 52.3906 71.6647 52.3906C70.3947 52.3906 69.9247 51.5306 69.9247 50.3906C69.9247 49.2206 70.5747 48.3906 71.5347 48.3906C72.6147 48.3906 73.0547 49.2606 73.0547 50.2906V50.5306H70.4347C70.4347 51.3406 70.8747 51.9906 71.6947 51.9906C72.0447 51.9906 72.5447 51.8506 72.7647 51.7006V52.1806H72.7747ZM72.5447 50.1206C72.5447 49.4506 72.2747 48.7906 71.5747 48.7906C70.8747 48.7906 70.4447 49.4906 70.4447 50.1206H72.5447Z" fill="black"/><path d="M77.5747 52.2997H77.1047V51.6897H77.0947C76.8347 52.1797 76.4447 52.3897 75.9047 52.3897C74.8547 52.3897 74.3247 51.5197 74.3247 50.3897C74.3247 49.2297 74.7747 48.3897 75.9047 48.3897C76.6547 48.3897 77.0347 48.9397 77.0947 49.1297H77.1047V46.6797H77.5747V52.2997ZM75.9747 51.9897C76.8147 51.9897 77.1047 51.0897 77.1047 50.3897C77.1047 49.6897 76.8147 48.7897 75.9747 48.7897C75.0747 48.7897 74.8447 49.6497 74.8447 50.3897C74.8347 51.1297 75.0747 51.9897 75.9747 51.9897Z" fill="black"/><path d="M81.8646 52.1806C81.5346 52.3106 81.1047 52.3906 80.7547 52.3906C79.4847 52.3906 79.0146 51.5306 79.0146 50.3906C79.0146 49.2206 79.6646 48.3906 80.6246 48.3906C81.7046 48.3906 82.1447 49.2606 82.1447 50.2906V50.5306H79.5247C79.5247 51.3406 79.9647 51.9906 80.7847 51.9906C81.1347 51.9906 81.6347 51.8506 81.8547 51.7006V52.1806H81.8646ZM81.6347 50.1206C81.6347 49.4506 81.3646 48.7906 80.6546 48.7906C79.9546 48.7906 79.5247 49.4906 79.5247 50.1206H81.6347Z" fill="black"/><path d="M83.6347 49.3309C83.6347 48.9109 83.6347 48.7509 83.6047 48.4709H84.0747V49.2109H84.0847C84.2547 48.7809 84.5847 48.3809 85.0647 48.3809C85.1747 48.3809 85.3147 48.4009 85.3947 48.4209V48.9209C85.2947 48.8909 85.1647 48.8809 85.0447 48.8809C84.2947 48.8809 84.0947 49.7209 84.0947 50.4109V52.3009H83.6247V49.3309H83.6347Z" fill="black"/><path d="M88.9147 51.6904H88.9047C88.6947 52.1504 88.1647 52.4004 87.6847 52.4004C86.5947 52.4004 86.4247 51.6604 86.4247 51.3204C86.4247 50.0404 87.7947 49.9804 88.7847 49.9804H88.8747V49.7804C88.8747 49.1304 88.6447 48.8004 88.0047 48.8004C87.6047 48.8004 87.2347 48.8904 86.8847 49.1204V48.6604C87.1747 48.5204 87.6747 48.4004 88.0047 48.4004C88.9547 48.4004 89.3447 48.8304 89.3447 49.8304V51.5204C89.3447 51.8304 89.3447 52.0604 89.3847 52.3204H88.9147V51.6904ZM88.8747 50.3704H88.7447C87.9247 50.3704 86.9547 50.4504 86.9547 51.2904C86.9547 51.7904 87.3147 51.9804 87.7547 51.9804C88.8647 51.9804 88.8847 51.0104 88.8847 50.6004V50.3704H88.8747Z" fill="black"/><path d="M92.7048 48.8791H91.8347V51.3591C91.8347 51.7091 91.9647 51.9891 92.3447 51.9891C92.5247 51.9891 92.6448 51.9491 92.7848 51.8991L92.8148 52.2891C92.7048 52.3291 92.4647 52.3891 92.2347 52.3891C91.3947 52.3891 91.3647 51.8091 91.3647 51.1091V48.8691H90.6147V48.4591H91.3647V47.5391L91.8347 47.3691V48.4591H92.7048V48.8791Z" fill="black"/><path d="M94.6148 47.6007H94.1448V46.9707H94.6148V47.6007ZM94.1348 48.4707H94.6048V52.3007H94.1348V48.4707Z" fill="black"/><path d="M97.8747 48.3809C99.1147 48.3809 99.6647 49.3409 99.6647 50.3809C99.6647 51.4209 99.1147 52.3809 97.8747 52.3809C96.6347 52.3809 96.0847 51.4209 96.0847 50.3809C96.0947 49.3409 96.6447 48.3809 97.8747 48.3809ZM97.8747 51.9909C98.7047 51.9909 99.1447 51.2809 99.1447 50.3909C99.1447 49.5009 98.7047 48.7909 97.8747 48.7909C97.0447 48.7909 96.6047 49.5009 96.6047 50.3909C96.6147 51.2709 97.0547 51.9909 97.8747 51.9909Z" fill="black"/><path d="M101.145 49.3709C101.145 49.0809 101.145 48.7809 101.115 48.4709H101.575V49.1509H101.595C101.755 48.8009 102.035 48.3809 102.835 48.3809C103.785 48.3809 104.145 49.0109 104.145 49.8509V52.3009H103.675V49.9709C103.675 49.2509 103.415 48.7809 102.765 48.7809C101.905 48.7809 101.635 49.5409 101.635 50.1809V52.3009H101.165V49.3709H101.145Z" fill="black"/><path d="M29.2747 62.5898H30.3247V67.8298H29.2747V62.5898Z" fill="black"/><path d="M31.4747 63.9591H32.4247V64.4891H32.4347C32.7547 64.0491 33.1747 63.8691 33.7047 63.8691C34.6247 63.8691 35.0147 64.5191 35.0147 65.3891V67.8291H34.0047V65.7691C34.0047 65.2991 33.9947 64.6591 33.3547 64.6591C32.6247 64.6591 32.4647 65.4491 32.4647 65.9391V67.8291H31.4747V63.9591Z" fill="black"/><path d="M36.1647 63.9591H37.1147V64.4891H37.1247C37.4447 64.0491 37.8647 63.8691 38.3947 63.8691C39.3147 63.8691 39.7047 64.5191 39.7047 65.3891V67.8291H38.6947V65.7691C38.6947 65.2991 38.6847 64.6591 38.0447 64.6591C37.3147 64.6591 37.1547 65.4491 37.1547 65.9391V67.8291H36.1447V63.9591H36.1647Z" fill="black"/><path d="M42.6347 63.8691C43.7847 63.8691 44.6647 64.6391 44.6647 65.9191C44.6647 67.0291 43.9247 67.9191 42.6347 67.9191C41.3547 67.9191 40.6147 67.0291 40.6147 65.9191C40.6147 64.6391 41.4947 63.8691 42.6347 63.8691ZM42.6347 67.1391C43.4047 67.1391 43.6147 66.4491 43.6147 65.7991C43.6147 65.2091 43.2947 64.6491 42.6347 64.6491C41.9847 64.6491 41.6647 65.2191 41.6647 65.7991C41.6647 66.4391 41.8647 67.1391 42.6347 67.1391Z" fill="black"/><path d="M47.8547 64.7696C47.5447 64.6696 47.3247 64.5996 46.9547 64.5996C46.6847 64.5996 46.3647 64.6996 46.3647 65.0296C46.3647 65.6496 48.1147 65.2596 48.1147 66.6496C48.1147 67.5496 47.3147 67.9096 46.4947 67.9096C46.1147 67.9096 45.7247 67.8396 45.3547 67.7396L45.4147 66.9096C45.7347 67.0696 46.0647 67.1596 46.4047 67.1596C46.6547 67.1596 47.0647 67.0596 47.0647 66.6896C47.0647 65.9296 45.3147 66.4496 45.3147 65.0496C45.3147 64.2196 46.0447 63.8496 46.8347 63.8496C47.3047 63.8496 47.6147 63.9296 47.9347 63.9896L47.8547 64.7696Z" fill="black"/><path d="M52.5546 67.8309H51.6046V67.3009H51.5946C51.2846 67.6809 50.8546 67.9209 50.3246 67.9209C49.4046 67.9209 49.0146 67.2709 49.0146 66.4009V63.9609H50.0246V66.0209C50.0246 66.4909 50.0346 67.1309 50.6746 67.1309C51.4046 67.1309 51.5646 66.3409 51.5646 65.8509V63.9609H52.5746V67.8309H52.5546Z" fill="black"/><path d="M53.7147 62.2891H54.7247V63.2491H53.7147V62.2891ZM53.7147 63.9591H54.7247V67.8291H53.7147V63.9591Z" fill="black"/><path d="M58.1947 64.7696C57.8847 64.6696 57.6647 64.5996 57.2947 64.5996C57.0247 64.5996 56.7047 64.6996 56.7047 65.0296C56.7047 65.6496 58.4547 65.2596 58.4547 66.6496C58.4547 67.5496 57.6547 67.9096 56.8347 67.9096C56.4547 67.9096 56.0647 67.8396 55.6947 67.7396L55.7547 66.9096C56.0747 67.0696 56.4047 67.1596 56.7447 67.1596C57.0047 67.1596 57.4047 67.0596 57.4047 66.6896C57.4047 65.9296 55.6547 66.4496 55.6547 65.0496C55.6547 64.2196 56.3847 63.8496 57.1747 63.8496C57.6447 63.8496 57.9547 63.9296 58.2747 63.9896L58.1947 64.7696Z" fill="black"/><path d="M61.6347 64.7696C61.3247 64.6696 61.1047 64.5996 60.7347 64.5996C60.4647 64.5996 60.1447 64.6996 60.1447 65.0296C60.1447 65.6496 61.8947 65.2596 61.8947 66.6496C61.8947 67.5496 61.0947 67.9096 60.2747 67.9096C59.8947 67.9096 59.5047 67.8396 59.1347 67.7396L59.1947 66.9096C59.5147 67.0696 59.8447 67.1596 60.1847 67.1596C60.4347 67.1596 60.8447 67.0596 60.8447 66.6896C60.8447 65.9296 59.0947 66.4496 59.0947 65.0496C59.0947 64.2196 59.8247 63.8496 60.6147 63.8496C61.0847 63.8496 61.3947 63.9296 61.7147 63.9896L61.6347 64.7696Z" fill="black"/><path d="M65.8747 67.6109C65.5047 67.8109 65.0847 67.9209 64.5447 67.9209C63.2647 67.9209 62.5247 67.1809 62.5247 65.9209C62.5247 64.8009 63.1147 63.8809 64.3147 63.8809C65.7447 63.8809 66.1547 64.8609 66.1547 66.2109H63.4847C63.5247 66.8309 63.9647 67.1909 64.5847 67.1909C65.0747 67.1909 65.4947 67.0109 65.8647 66.8009V67.6109H65.8747ZM65.2047 65.5109C65.1747 65.0209 64.9447 64.6009 64.3847 64.6009C63.8247 64.6009 63.5347 64.9909 63.4947 65.5109H65.2047Z" fill="black"/><path d="M68.0647 65.4609H71.8147V66.1509H68.0647V65.4609Z" fill="black"/><path d="M76.8748 63.5502C76.5448 63.4102 76.1748 63.3302 75.8048 63.3302C75.4448 63.3302 74.9748 63.4902 74.9748 64.0602C74.9748 64.9702 77.2748 64.5902 77.2748 66.3402C77.2748 67.4902 76.3648 67.9202 75.3048 67.9202C74.7348 67.9202 74.4748 67.8402 73.9648 67.7202L74.0648 66.7702C74.4248 66.9702 74.8348 67.0902 75.2548 67.0902C75.6548 67.0902 76.1848 66.8902 76.1848 66.4102C76.1848 65.4102 73.8848 65.8202 73.8848 64.0902C73.8848 62.9202 74.7948 62.4902 75.7148 62.4902C76.1648 62.4902 76.5848 62.5502 76.9648 62.6802L76.8748 63.5502Z" fill="black"/><path d="M77.8147 63.9609H78.8847L79.7447 66.8209H79.7547L80.5347 63.9609H81.7047L82.5447 66.8209H82.5647L83.3647 63.9609H84.3247L83.1347 67.8309H81.9447L81.1047 64.8809H81.0847L80.2547 67.8309H79.1047L77.8147 63.9609Z" fill="black"/><path d="M85.0547 62.2891H86.0647V63.2491H85.0547V62.2891ZM85.0547 63.9591H86.0647V67.8291H85.0547V63.9591Z" fill="black"/><path d="M89.5247 64.7696C89.2147 64.6696 88.9947 64.5996 88.6247 64.5996C88.3547 64.5996 88.0347 64.6996 88.0347 65.0296C88.0347 65.6496 89.7847 65.2596 89.7847 66.6496C89.7847 67.5496 88.9847 67.9096 88.1647 67.9096C87.7847 67.9096 87.3947 67.8396 87.0247 67.7396L87.0847 66.9096C87.3947 67.0696 87.7347 67.1596 88.0747 67.1596C88.3347 67.1596 88.7347 67.0596 88.7347 66.6896C88.7347 65.9296 86.9847 66.4496 86.9847 65.0496C86.9847 64.2196 87.7147 63.8496 88.5047 63.8496C88.9747 63.8496 89.2847 63.9296 89.6047 63.9896L89.5247 64.7696Z" fill="black"/><path d="M92.9647 64.7696C92.6547 64.6696 92.4347 64.5996 92.0647 64.5996C91.7947 64.5996 91.4747 64.6996 91.4747 65.0296C91.4747 65.6496 93.2247 65.2596 93.2247 66.6496C93.2247 67.5496 92.4247 67.9096 91.6047 67.9096C91.2247 67.9096 90.8347 67.8396 90.4647 67.7396L90.5247 66.9096C90.8447 67.0696 91.1747 67.1596 91.5147 67.1596C91.7647 67.1596 92.1747 67.0596 92.1747 66.6896C92.1747 65.9296 90.4247 66.4496 90.4247 65.0496C90.4247 64.2196 91.1547 63.8496 91.9447 63.8496C92.4147 63.8496 92.7247 63.9296 93.0447 63.9896L92.9647 64.7696Z" fill="black"/><path d="M96.3147 62.5898H97.3647V67.8298H96.3147V62.5898Z" fill="black"/><path d="M98.5048 63.9591H99.4548V64.4891H99.4747C99.7847 64.0491 100.215 63.8691 100.745 63.8691C101.665 63.8691 102.055 64.5191 102.055 65.3891V67.8291H101.045V65.7691C101.045 65.2991 101.035 64.6591 100.395 64.6591C99.6648 64.6591 99.5048 65.4491 99.5048 65.9391V67.8291H98.4948V63.9591H98.5048Z" fill="black"/><path d="M103.205 63.9591H104.155V64.4891H104.165C104.485 64.0491 104.905 63.8691 105.435 63.8691C106.355 63.8691 106.745 64.5191 106.745 65.3891V67.8291H105.735V65.7691C105.735 65.2991 105.725 64.6591 105.085 64.6591C104.355 64.6591 104.205 65.4491 104.205 65.9391V67.8291H103.195V63.9591H103.205Z" fill="black"/><path d="M109.675 63.8691C110.825 63.8691 111.705 64.6391 111.705 65.9191C111.705 67.0291 110.965 67.9191 109.675 67.9191C108.395 67.9191 107.655 67.0291 107.655 65.9191C107.655 64.6391 108.525 63.8691 109.675 63.8691ZM109.675 67.1391C110.445 67.1391 110.655 66.4491 110.655 65.7991C110.655 65.2091 110.335 64.6491 109.675 64.6491C109.025 64.6491 108.705 65.2191 108.705 65.7991C108.705 66.4391 108.905 67.1391 109.675 67.1391Z" fill="black"/><path d="M112.165 63.9609H113.245L114.205 66.7809H114.215L115.145 63.9609H116.155L114.725 67.8309H113.595L112.165 63.9609Z" fill="black"/><path d="M117.045 64.1591C117.435 63.9791 117.965 63.8691 118.385 63.8691C119.565 63.8691 120.055 64.3591 120.055 65.4991V65.9991C120.055 66.3891 120.065 66.6791 120.075 66.9691C120.085 67.2591 120.095 67.5291 120.115 67.8291H119.225C119.185 67.6291 119.185 67.3691 119.185 67.2491H119.175C118.945 67.6791 118.435 67.9191 117.985 67.9191C117.305 67.9191 116.635 67.5091 116.635 66.7691C116.635 66.1891 116.915 65.8491 117.295 65.6691C117.675 65.4791 118.175 65.4391 118.595 65.4391H119.155C119.155 64.8191 118.875 64.6091 118.285 64.6091C117.855 64.6091 117.425 64.7791 117.095 65.0291L117.045 64.1591ZM118.225 67.1791C118.535 67.1791 118.775 67.0391 118.935 66.8291C119.105 66.6091 119.145 66.3291 119.145 66.0291H118.705C118.255 66.0291 117.585 66.1091 117.585 66.6991C117.585 67.0391 117.865 67.1791 118.225 67.1791Z" fill="black"/><path d="M121.485 64.6991H120.745V63.9591H121.485V63.1891L122.495 62.8691V63.9691H123.385V64.7091H122.495V66.5091C122.495 66.8391 122.585 67.1491 122.965 67.1491C123.145 67.1491 123.315 67.1091 123.425 67.0391L123.455 67.8391C123.245 67.8991 123.015 67.9291 122.715 67.9291C121.925 67.9291 121.495 67.4391 121.495 66.6791V64.6991H121.485Z" fill="black"/><path d="M124.215 62.2891H125.225V63.2491H124.215V62.2891ZM124.215 63.9591H125.225V67.8291H124.215V63.9591Z" fill="black"/><path d="M128.155 63.8691C129.305 63.8691 130.185 64.6391 130.185 65.9191C130.185 67.0291 129.445 67.9191 128.155 67.9191C126.875 67.9191 126.135 67.0291 126.135 65.9191C126.135 64.6391 127.015 63.8691 128.155 63.8691ZM128.155 67.1391C128.925 67.1391 129.135 66.4491 129.135 65.7991C129.135 65.2091 128.815 64.6491 128.155 64.6491C127.505 64.6491 127.185 65.2191 127.185 65.7991C127.185 66.4391 127.395 67.1391 128.155 67.1391Z" fill="black"/><path d="M131.085 63.9591H132.035V64.4891H132.055C132.365 64.0491 132.795 63.8691 133.325 63.8691C134.245 63.8691 134.635 64.5191 134.635 65.3891V67.8291H133.625V65.7691C133.625 65.2991 133.615 64.6591 132.975 64.6591C132.245 64.6591 132.085 65.4491 132.085 65.9391V67.8291H131.075V63.9591H131.085Z" fill="black"/><path d="M139.565 62.5898H140.755L142.815 67.8298H141.655L141.205 66.6298H139.085L138.625 67.8298H137.535L139.565 62.5898ZM140.145 63.6398H140.125L139.365 65.7998H140.895L140.145 63.6398Z" fill="black"/><path d="M147.055 63.9609V67.4509C147.055 68.5009 146.635 69.4909 145.015 69.4909C144.615 69.4909 144.155 69.4309 143.675 69.2309L143.755 68.3709C144.065 68.5409 144.565 68.7109 144.875 68.7109C145.985 68.7109 146.035 67.8809 146.035 67.2109H146.015C145.825 67.5409 145.375 67.8309 144.815 67.8309C143.675 67.8309 143.235 66.9109 143.235 65.8809C143.235 64.9509 143.715 63.8809 144.875 63.8809C145.385 63.8809 145.785 64.0509 146.065 64.5009H146.085V63.9709H147.055V63.9609ZM146.045 65.8509C146.045 65.1909 145.785 64.6509 145.205 64.6509C144.525 64.6509 144.305 65.2809 144.305 65.8709C144.305 66.4009 144.585 67.0409 145.165 67.0409C145.785 67.0509 146.045 66.5009 146.045 65.8509Z" fill="black"/><path d="M151.295 67.6109C150.925 67.8109 150.505 67.9209 149.965 67.9209C148.685 67.9209 147.945 67.1809 147.945 65.9209C147.945 64.8009 148.535 63.8809 149.735 63.8809C151.165 63.8809 151.575 64.8609 151.575 66.2109H148.905C148.945 66.8309 149.385 67.1909 150.005 67.1909C150.495 67.1909 150.915 67.0109 151.285 66.8009V67.6109H151.295ZM150.615 65.5109C150.585 65.0209 150.365 64.6009 149.795 64.6009C149.235 64.6009 148.945 64.9909 148.905 65.5109H150.615Z" fill="black"/><path d="M152.475 63.9591H153.425V64.4891H153.435C153.755 64.0491 154.175 63.8691 154.705 63.8691C155.625 63.8691 156.015 64.5191 156.015 65.3891V67.8291H155.005V65.7691C155.005 65.2991 154.995 64.6591 154.355 64.6591C153.625 64.6591 153.465 65.4491 153.465 65.9391V67.8291H152.455V63.9591H152.475Z" fill="black"/><path d="M159.685 64.7891C159.505 64.7091 159.305 64.6491 159.005 64.6491C158.385 64.6491 157.985 65.1491 157.985 65.8691C157.985 66.5791 158.325 67.1291 159.025 67.1291C159.315 67.1291 159.625 67.0191 159.795 66.9491L159.835 67.7791C159.545 67.8691 159.245 67.9091 158.825 67.9091C157.555 67.9091 156.915 67.0491 156.915 65.8691C156.915 64.7491 157.575 63.8691 158.785 63.8691C159.195 63.8691 159.485 63.9091 159.765 63.9991L159.685 64.7891Z" fill="black"/><path d="M162.225 66.7809H162.245L163.175 63.9609H164.195L162.745 67.8009C162.425 68.6609 162.185 69.5009 161.135 69.5009C160.895 69.5009 160.655 69.4609 160.425 69.3909L160.495 68.6509C160.625 68.6909 160.765 68.7209 161.015 68.7209C161.425 68.7209 161.665 68.4409 161.665 68.0309L160.185 63.9709H161.295L162.225 66.7809Z" fill="black"/></svg>